<svg width="44" height="40" viewBox="0 0 44 40" fill="none" xmlns="http://www.w3.org/2000/svg">
<path d="M42.459 17.7657C41.2943 13.8928 38.9347 10.4983 35.8015 7.62058C32.4175 4.52828 28.3972 2.18506 24.1826 0.416919C23.8437 0.274762 23.5028 0.135996 23.16 0.000737075L23.1582 0C17.9701 6.21793 0 10.8584 0 23.8893C0 28.9866 3.22164 33.7492 7.94752 35.6611C10.8863 36.6569 14.0515 36.4717 16.8731 35.1867C19.5999 33.9448 21.6758 31.7586 23.3483 29.3208C25.1137 26.7475 26.458 23.9216 28.1355 21.2947C29.694 18.8542 31.6861 16.4183 34.6422 15.7303C37.3218 15.1067 40.497 15.8031 42.459 17.7657ZM42.5737 20.4092C41.383 18.0286 38.8793 17.0065 36.3112 17.1276C33.8312 17.2445 32.0226 18.823 30.6424 20.7636C29.0806 22.9596 27.984 25.466 26.7089 27.8305C25.48 30.1092 24.1577 32.3418 22.3886 34.2496C20.4268 36.365 17.9613 37.9593 15.1934 38.7968C16.4738 39.7191 18.2483 39.926 19.7782 39.9849C21.5078 40.0516 23.2564 39.8934 24.9584 39.5886C28.0669 39.0318 31.4232 37.9414 33.7212 35.6722C30.1352 35.7186 27.2435 33.3072 26.9863 29.6717C29.2928 32.4654 32.783 33.5414 36.2755 32.5472C39.3354 31.6762 41.7937 29.2568 42.7847 26.2429C43.4139 24.3295 43.4759 22.2499 42.5737 20.4092Z" fill="#F6F6F6"/>
</svg>
